<svg id="Layer_1" data-name="Layer 1" xmlns="http://www.w3.org/2000/svg" viewBox="0 0 2178.64 726.33"><defs><style>.cls-1{fill:#060707;}.cls-2{fill:#fffffe;}.cls-3{fill:#080909;}.cls-4{fill:#070808;}.cls-5{fill:#070707;}.cls-6{fill:#fbb141;}.cls-7{fill:#fbb142;}.cls-8{fill:#fbb143;}.cls-9{fill:#fbb041;}.cls-10{fill:#090a0a;}.cls-11{fill:#090909;}</style></defs><path class="cls-1" d="M2103.42,429.37c-13.07,0-26.36-.09-39.4-.09-2.17-78.73-.08-159.14-.83-238.43,13.36-.85,26.82,0,40.23-.28Z"/><path class="cls-2" d="M206.58,135.47C146.89,139.41,102.46,191.39,86,245.67a200.41,200.41,0,0,0-7.56,33.54c-.78,5.69-1.49,11.37-1.7,17.12a10.9,10.9,0,0,1-1.47,5.85V134.76H206.65A2.81,2.81,0,0,1,206.58,135.47Z"/><path class="cls-3" d="M206.58,135.47a2.81,2.81,0,0,0,.07-.71h16.43a2.52,2.52,0,0,0,.07.72Z"/><path class="cls-4" d="M1055.71,429.28c-1-35-.33-218.64.17-225.37,32.74-.55,65.55-.12,98.32-.16a123.29,123.29,0,0,1,43,7.61c50.18,16.94,69.17,72.72,63.34,121.64-3.84,53.62-42.8,93.1-96.82,95.65C1127.71,430.07,1091.77,428.94,1055.71,429.28Zm45.34-42.11c17.49.56,35,.08,52.53.11a83.09,83.09,0,0,0,21.87-3.09c35.51-8.79,44.78-46.93,41.5-79.17-2.2-36.78-25.79-59.39-62.76-59.36-17.1-.12-34.2-.06-51.3-.07a2,2,0,0,0-2.14.94C1101,293.11,1100.19,340.25,1101.05,387.17Z"/><path class="cls-5" d="M1394.51,429.75c3.26-.59,35.52-.72,40.6-.18,3.29,15.34,17.8,24.19,32.58,25.94,17.07,2,35.81,2.29,51.24-6.28,10.54-5.93,9.72-20.08,2.88-26.45a32.93,32.93,0,0,0-8.87-5.81c-28.49-10.54-61-8.05-87.93-23.45-45.92-24.24-45.34-99.73-1.72-126C1440.07,257,1460.1,253,1479.72,253c20.94.49,42.49-8.57,52.66-27.68.93-.61,1.7.74,2.5,1.13l29.51,22.73c-2.14,7.65-11.58,17.44-23.84,24.75,24.88,14.16,31.53,43.64,27.37,70.26-2.5,18.77-12.46,33-27.32,44.26,3.54,2.84,7.46,5.38,10.77,8.48,23.68,22,18.43,64.51-7.85,82.24C1496.25,511.05,1395.91,500.34,1394.51,429.75Zm87.59-59.69c32.06-1,49.92-14,44.7-48.53-2.12-16.88-18.11-26-33.82-27.46-21.68-2.66-53.55-.5-59.18,25.42C1426.85,356.25,1446.79,370.43,1482.1,370.06Z"/><path class="cls-1" d="M533.49,254.12c.82,58.07.63,116.76.11,174.9-5.07.5-31.17.36-34.21-.21-.72-3.64-1.45-7.35-2.23-11.28C470.33,432,437.73,434.88,409,424.17c-44.55-15.89-58-69.07-47.1-111.25,14.5-60.49,86.19-74.26,135.27-47.15.72-3.74,1.45-7.57,2.18-11.35C502.36,253.79,526.75,253.59,533.49,254.12Zm-85.95,38.22c-41.86-1.12-52.68,31.76-45.39,67.61,3.83,15.13,13,24.94,28.38,28.65,23.93,6,56,0,62.06-27.64C500.62,325.18,489.69,291.13,447.54,292.34Z"/><path class="cls-1" d="M1971.59,266.15c.8-4.17,1.53-8,2.26-11.8,3.27-.56,30.34-.6,34.22,0,.74,58.08,0,116.35.26,174.3-.53.37-.51.47-.92.62-11.13-.11-22.24.31-33.36-.11-1.19-3.68-1.44-7.5-2.41-11.44-18.62,9.48-38.06,14.31-59.13,12.59-61.81-2.6-89.21-58.28-76.88-114.27,8.91-44.31,49.69-66.88,92.78-63.05C1943.82,253.51,1958.26,258.56,1971.59,266.15Zm-97,74.33c-1.34,41.18,26.58,55.82,63.73,48.31,19.76-3.83,29.87-21.11,30.77-40.25,2.33-22.28-4.92-49.07-29.72-54.18C1902.68,286.38,1874.21,300,1874.56,340.48Z"/><path class="cls-4" d="M570.68,373.64h39.58c8.21,18.7,31.16,19.84,48.77,18.41,6.4-.43,12.83-1.84,18.33-5.24A10.49,10.49,0,0,0,678,369.2a32.92,32.92,0,0,0-7.2-3.88c-13.73-5.2-28.58-5.95-42.85-9-13-2.69-26-7.52-36.42-16-24.41-19.56-18.59-59.91,7.42-75.41,17-10.94,38.09-13.91,57.93-12,30,2.23,59.77,23.7,59.89,55.89-.48.34-.49.45-.9.57l-38.79.08c-1.07-22.81-42.32-23.35-56.17-13.21-6,4.34-5.85,14.35.61,18.18,7.84,4.59,17.36,4.73,26.07,6.6,19.64,3.17,40.26,6.4,56.88,18.13,21.83,14.95,25.09,47.08,8,67.06-11.57,14.2-29.76,20.86-47.47,23.24C627.55,434.78,570.38,419.43,570.68,373.64Z"/><path class="cls-4" d="M805.57,494.42c-10.45.51-40.82.3-44.26-.26,15.33-32.59,34.21-64.5,50-97.11q-37.23-70.92-75-142.61c1.38-.82,2.6-.45,3.74-.51,2.6-.07,5.2,0,7.8,0H783c17.38,33.06,33.67,66.61,51,99.72,17.66-32.86,33.72-66.46,51-99.5,6.12-.44,43.3-.31,46.74.16C890.25,334.54,847.53,414.27,805.57,494.42Z"/><path class="cls-4" d="M1708.31,218.24c3.48-.53,36.42-.59,40.48-.1.74,1.2.39,2.6.38,3.92-.07,10.36-.28,20.59-.34,31,11.73.81,23.3.11,35.07.33.81,12.76.44,25.64.16,38.45-11.67.7-23.24.08-35,.28-.8,27.59.24,55.29.08,82.93a20.73,20.73,0,0,0,1,6.86c3.23,10.31,16.37,11.2,24.71,6.9,3.17-1.56,6.13-3.53,9.5-5.5,7,7.89,15.08,17.38,22.11,26.14-20.93,26-69.26,30.57-88.2,0a60.52,60.52,0,0,1-8.34-21.23,79.5,79.5,0,0,1-1.68-16.29C1708.17,320.69,1708,269.45,1708.31,218.24Z"/><path class="cls-6" d="M223.15,135.48c45.6,2.88,84.18,35.56,105.32,74.53,29.52,53.9,32.79,121,10.69,178.1-10.55,31.24-33.09,57-57,79-16.38,13.15-14.24,36.1-15.05,55-33.45,2-68.42.13-102.37.83-.85-.12-1.5.08-2.19-.7-.84-15.74,1.06-37.63-10.21-50C111.83,435,87.2,399.89,78.72,344.37a143.31,143.31,0,0,1-2-18.73,11.06,11.06,0,0,0-1.52-6.23V302.18a10.9,10.9,0,0,0,1.47-5.85c.21-5.75.92-11.43,1.7-17.12A200.41,200.41,0,0,1,86,245.67C103.59,185.91,156.83,130,223.15,135.48ZM300.86,385c-40.64-.43-81.42.84-122-.46-.1-16.16-.88-32.53.33-48.6,37.43-.19,74.94.36,112.29-.19.84-.72.6-1.3.72-2.21q0-18.87-.11-37.73c-.06-.55-.11-.4-.72-1-37.34-.61-74.91.52-112.23-.42-1.13-14.61-.1-29.7-.47-44.47a17.74,17.74,0,0,1,.26-3.65,4.55,4.55,0,0,1,.57-.54c40.39-.87,81.33,1,121.51-.74.54-13.08-.05-26.25.08-39.36-.06-.52-.13-.4-.69-.95-54.15-.48-108.46-.18-162.64-.31-1.18,0-2.48-.35-3.68,1,.53,73.58-1,147.44.55,220.9,55.4-.35,110.89.7,166.22-.37C301.39,422.22,301.4,389.12,300.86,385Z"/><path class="cls-7" d="M210.76,645.2c-4.43-2.72-8-3.8-9.52-9.63-16.4.13-14.89-26.29,1.06-25.58,8.35-.06,16.7,0,25,0a13.12,13.12,0,0,1,9.79,4.38c3.18,3.26,3.93,12.36-.37,16.22a18.9,18.9,0,0,1-9.07,4.86c-1.21,4.93-5.35,7.52-9.55,9.77Z"/><path class="cls-8" d="M214.89,535.17c15.73,0,31.45,0,47.18,0a12.39,12.39,0,0,1,13.28,15,11.81,11.81,0,0,1-9.67,9.86c-34.17.6-68.71,1.12-102.84-.21-11.44-2.62-11.55-20.87-.75-24,8.66-1.57,17.75-.31,26.55-.69Z"/><path class="cls-9" d="M214.43,597.73H182.86a12.71,12.71,0,0,1-5.61-.88c-10.69-4.27-8.88-22.78,2.9-24,22.81-.34,45.65-.1,68.46-.09,7.21.29,11.52,7.08,10.79,13.33.29,6.29-5.82,11.79-11.76,11.66C236.57,597.56,225.5,597.75,214.43,597.73Z"/><path class="cls-10" d="M1305.91,254.33c13.18-1.08,26.64-.06,40.13-.4,1.12,58.16.48,116.71.22,174.92-3.22.54-32.81.72-40.07.24C1305.16,370.94,1306,312.55,1305.91,254.33Z"/><path class="cls-3" d="M1348,211.47c-.51,8.33-3.75,16.68-12.37,19.39a27.72,27.72,0,0,1-18.12.29c-17.67-4.79-17.67-37,.59-40.93C1334.49,186.1,1347.84,193.66,1348,211.47Z"/><path class="cls-11" d="M1653.4,429.09c-6.85.46-36.78.29-40.21-.25-.79-45.35-.26-169.82.23-174.47,12.35-1.1,25.45-.07,38-.45.89.11,1.47-.15,2.21.62C1654.59,299.32,1654,424.21,1653.4,429.09Z"/><path class="cls-3" d="M1655.28,211.4c-.54,8.25-3.54,16.53-12,19.33a27.54,27.54,0,0,1-18.9.27c-17.19-5-17.07-36.52.65-40.67C1642.24,186.27,1654.46,192.92,1655.28,211.4Z"/></svg>