<svg xmlns="http://www.w3.org/2000/svg" viewBox="0 0 500 500" width="500" height="500"
    preserveAspectRatio="xMidYMid meet"
    style="width: 100%; height: 100%; transform: translate3d(0px, 0px, 0px); content-visibility: visible;">
    <defs>
        <clipPath id="__lottie_element_357">
            <rect width="500" height="500" x="0" y="0"></rect>
        </clipPath>
        <mask id="__lottie_element_403" mask-type="alpha">
            <g transform="matrix(1,0,0,-0.0199278611689806,131.30300903320312,231.52926635742188)" opacity="1"
                style="display: block;">
                <g opacity="1" transform="matrix(1,0,0,1,60.84000015258789,33.93600082397461)">
                    <path fill="rgb(255,0,255)" fill-opacity="1"
                        d=" M-60.55699920654297,0.2150000035762787 C-56.29499816894531,19.297000885009766 -30.259000778198242,33.68600082397461 0.0010000000474974513,33.68600082397461 C30.259000778198242,33.68600082397461 56.29499816894531,19.297000885009766 60.55699920654297,0.2150000035762787 C60.59000015258789,0.0729999989271164 60.59000015258789,-0.0729999989271164 60.55699920654297,-0.2150000035762787 C56.29499816894531,-19.297000885009766 30.259000778198242,-33.68600082397461 0.0010000000474974513,-33.68600082397461 C-30.259000778198242,-33.68600082397461 -56.29499816894531,-19.297000885009766 -60.55699920654297,-0.2150000035762787 C-60.59000015258789,-0.0729999989271164 -60.59000015258789,0.0729999989271164 -60.55699920654297,0.2150000035762787z">
                    </path>
                </g>
            </g>
        </mask>
        <mask id="__lottie_element_409" mask-type="alpha">
            <g transform="matrix(1,0,0,-0.0199278611689806,131.30300903320312,231.52926635742188)" opacity="1"
                style="display: block;">
                <g opacity="1" transform="matrix(1,0,0,1,60.84000015258789,33.93600082397461)">
                    <path fill="rgb(255,0,255)" fill-opacity="1"
                        d=" M-60.55699920654297,0.2150000035762787 C-56.29499816894531,19.297000885009766 -30.259000778198242,33.68600082397461 0.0010000000474974513,33.68600082397461 C30.259000778198242,33.68600082397461 56.29499816894531,19.297000885009766 60.55699920654297,0.2150000035762787 C60.59000015258789,0.0729999989271164 60.59000015258789,-0.0729999989271164 60.55699920654297,-0.2150000035762787 C56.29499816894531,-19.297000885009766 30.259000778198242,-33.68600082397461 0.0010000000474974513,-33.68600082397461 C-30.259000778198242,-33.68600082397461 -56.29499816894531,-19.297000885009766 -60.55699920654297,-0.2150000035762787 C-60.59000015258789,-0.0729999989271164 -60.59000015258789,0.0729999989271164 -60.55699920654297,0.2150000035762787z">
                    </path>
                </g>
            </g>
        </mask>
    </defs>
    <g clip-path="url(#__lottie_element_357)">
        <g transform="matrix(1,0,0,1,170.8992156982422,135.5701141357422)" opacity="1" style="display: block;">
            <g opacity="1" transform="matrix(1,0,0,1,54.40999984741211,54.40999984741211)">
                <path stroke-linecap="butt" stroke-linejoin="miter" fill-opacity="0" stroke-miterlimit="10"
                    stroke="rgb(255,198,20)" stroke-opacity="1" stroke-width="14.907"
                    d=" M17.14299964904785,0 C17.14299964904785,9.468000411987305 9.468000411987305,17.14299964904785 0,17.14299964904785 C-9.467000007629395,17.14299964904785 -17.14299964904785,9.468000411987305 -17.14299964904785,0 C-17.14299964904785,-9.468000411987305 -9.467000007629395,-17.14299964904785 0,-17.14299964904785 C9.468000411987305,-17.14299964904785 17.14299964904785,-9.468000411987305 17.14299964904785,0z">
                </path>
            </g>
        </g>
        <g transform="matrix(0.13434360921382904,0.9909347891807556,-0.9909347891807556,0.13434360921382904,157.70513916015625,223.5270538330078)"
            opacity="1" style="display: block;">
            <g opacity="1" transform="matrix(1,0,0,1,23.214000701904297,23.214000701904297)">
                <path stroke-linecap="butt" stroke-linejoin="miter" fill-opacity="0" stroke-miterlimit="10"
                    stroke="rgb(255,183,0)" stroke-opacity="1" stroke-width="12.857"
                    d=" M-16.785999298095703,-16.785999298095703 C-16.785999298095703,-16.785999298095703 16.785999298095703,16.785999298095703 16.785999298095703,16.785999298095703">
                </path>
            </g>
            <g opacity="1" transform="matrix(1,0,0,1,23.214000701904297,23.214000701904297)">
                <path stroke-linecap="butt" stroke-linejoin="miter" fill-opacity="0" stroke-miterlimit="10"
                    stroke="rgb(255,183,0)" stroke-opacity="1" stroke-width="12.857"
                    d=" M16.785999298095703,-16.785999298095703 C16.785999298095703,-16.785999298095703 -16.785999298095703,16.785999298095703 -16.785999298095703,16.785999298095703">
                </path>
            </g>
        </g>
        <g mask="url(#__lottie_element_409)" style="display: block;">
            <g transform="matrix(1,0,0,1,128.72198486328125,180.19900512695312)" opacity="1">
                <g opacity="1" transform="matrix(1,0,0,1,50.558998107910156,50.558998107910156)">
                    <path stroke-linecap="butt" stroke-linejoin="miter" fill-opacity="0" stroke-miterlimit="10"
                        stroke="rgb(0,0,0)" stroke-opacity="1" stroke-width="4.3"
                        d=" M39.810001373291016,0 C39.810001373291016,21.986000061035156 21.986000061035156,39.810001373291016 -0.0010000000474974513,39.810001373291016 C-21.98699951171875,39.810001373291016 -39.810001373291016,21.986000061035156 -39.810001373291016,0 C-39.810001373291016,-21.986000061035156 -21.98699951171875,-39.810001373291016 -0.0010000000474974513,-39.810001373291016 C21.986000061035156,-39.810001373291016 39.810001373291016,-21.986000061035156 39.810001373291016,0z">
                    </path>
                </g>
                <g opacity="1" transform="matrix(1,0,0,1,40.05400085449219,42.79399871826172)">
                    <path stroke-linecap="round" stroke-linejoin="miter" fill-opacity="0" stroke-miterlimit="10"
                        stroke="rgb(0,0,0)" stroke-opacity="1" stroke-width="4.3"
                        d=" M-4.541999816894531,4.849999904632568 C-4.541999816894531,4.849999904632568 -4.540999889373779,-4.849999904632568 4.541999816894531,-4.517000198364258">
                    </path>
                </g>
            </g>
        </g>
        <g mask="url(#__lottie_element_403)" style="display: block;">
            <g transform="matrix(1,0,0,1,128.72198486328125,180.197998046875)" opacity="1">
                <g opacity="1" transform="matrix(1,0,0,1,53.03499984741211,52.70899963378906)">
                    <path stroke-linecap="round" stroke-linejoin="miter" fill-opacity="0" stroke-miterlimit="10"
                        stroke="rgb(0,0,0)" stroke-opacity="1" stroke-width="4.3"
                        d=" M-6.684000015258789,17.52199935913086 C-6.3420000076293945,17.805999755859375 -5.997000217437744,18.091999053955078 -5.6479997634887695,18.381000518798828 C-5.6479997634887695,18.381000518798828 -3.132999897003174,20.464000701904297 -3.132999897003174,20.464000701904297 C-1.3140000104904175,21.98699951171875 1.3359999656677246,21.98699951171875 3.1559998989105225,20.464000701904297 C3.1559998989105225,20.464000701904297 5.671000003814697,18.381000518798828 5.671000003814697,18.381000518798828 C17.607999801635742,8.463000297546387 25.51300048828125,1.9110000133514404 25.141000747680664,-7.660999774932861 C24.986000061035156,-11.857999801635742 23.035999298095703,-15.78499984741211 19.78499984741211,-18.44300079345703 C16.797000885009766,-20.924999237060547 12.87399959564209,-21.983999252319336 9.041999816894531,-21.340999603271484 C5.585999965667725,-20.736000061035156 2.4149999618530273,-19.03499984741211 -0.0010000000474974513,-16.48900032043457 C-2.4159998893737793,-19.03499984741211 -5.585000038146973,-20.736000061035156 -9.041999816894531,-21.340999603271484 C-9.041999816894531,-21.340999603271484 -9.041999816894531,-21.340999603271484 -9.041999816894531,-21.340999603271484 C-12.875,-21.98699951171875 -16.801000595092773,-20.926000595092773 -19.785999298095703,-18.437000274658203 C-23.035999298095703,-15.779999732971191 -24.98699951171875,-11.852999687194824 -25.142000198364258,-7.6570000648498535 C-25.33099937438965,-2.805000066757202 -23.389999389648438,1.2710000276565552 -19.87299919128418,5.4039998054504395">
                    </path>
                </g>
            </g>
        </g>
        <g transform="matrix(1,0,0,1,271.2879943847656,296.4189758300781)" opacity="1" style="display: block;">
            <g opacity="1" transform="matrix(1,0,0,1,51.637001037597656,7.238999843597412)">
                <path fill="rgb(255,183,0)" fill-opacity="1"
                    d=" M51.387001037597656,6.988999843597412 C51.387001037597656,6.988999843597412 -51.387001037597656,6.988999843597412 -51.387001037597656,6.988999843597412 C-51.387001037597656,6.988999843597412 -51.387001037597656,-6.988999843597412 -51.387001037597656,-6.988999843597412 C-51.387001037597656,-6.988999843597412 51.387001037597656,-6.988999843597412 51.387001037597656,-6.988999843597412 C51.387001037597656,-6.988999843597412 51.387001037597656,6.988999843597412 51.387001037597656,6.988999843597412z">
                </path>
            </g>
        </g>
        <g fill="rgb(35,35,35)" font-size="39.4655685424805" font-family="Conduit ITC Light" font-style="normal"
            font-weight="700" aria-label="branding" transform="matrix(1,0,0,1,270.75,281.375)" opacity="1"
            style="display: block;">
            <g stroke-linecap="butt" stroke-linejoin="round" stroke-miterlimit="4" transform="matrix(1,0,0,1,0,0)"
                opacity="1" style="display: inherit;">
                <g>
                    <g transform="matrix(1,0,0,1,0,0)" opacity="1" style="display: block;">
                        <path
                            d=" M16.97,-6.99 C16.97,-6.99 16.97,-11.13 16.97,-11.13 C16.97,-12.13 16.8,-13.05 16.46,-13.89 C16.11,-14.73 15.63,-15.46 15.02,-16.08 C14.4,-16.7 13.68,-17.19 12.87,-17.54 C12.05,-17.9 11.17,-18.08 10.22,-18.08 C9.38,-18.08 8.7,-17.94 8.19,-17.68 C7.68,-17.42 7.3,-17.29 7.06,-17.29 C6.88,-17.29 6.79,-17.43 6.79,-17.72 C6.79,-17.72 6.79,-24.47 6.79,-24.47 C6.79,-24.73 6.66,-24.86 6.39,-24.86 C6.39,-24.86 2.68,-24.86 2.68,-24.86 C2.42,-24.86 2.29,-24.73 2.29,-24.47 C2.29,-24.47 2.29,-0.39 2.29,-0.39 C2.29,-0.13 2.42,0 2.68,0 C2.68,0 6.04,0 6.04,0 C6.17,0 6.26,-0.04 6.31,-0.12 C6.37,-0.2 6.41,-0.29 6.43,-0.39 C6.46,-0.5 6.49,-0.59 6.53,-0.67 C6.57,-0.75 6.63,-0.79 6.71,-0.79 C6.95,-0.79 7.31,-0.66 7.79,-0.39 C8.28,-0.13 8.97,0 9.87,0 C10.89,0 11.84,-0.17 12.71,-0.51 C13.58,-0.85 14.33,-1.33 14.96,-1.93 C15.59,-2.54 16.08,-3.28 16.44,-4.14 C16.79,-5.01 16.97,-5.96 16.97,-6.99z M12.47,-6.99 C12.47,-6.17 12.21,-5.49 11.68,-4.95 C11.15,-4.41 10.47,-4.14 9.65,-4.14 C8.83,-4.14 8.15,-4.42 7.6,-4.97 C7.06,-5.53 6.79,-6.2 6.79,-6.99 C6.79,-6.99 6.79,-11.13 6.79,-11.13 C6.79,-11.92 7.05,-12.58 7.58,-13.12 C8.11,-13.66 8.8,-13.93 9.65,-13.93 C10.47,-13.93 11.15,-13.66 11.68,-13.12 C12.21,-12.58 12.47,-11.92 12.47,-11.13 C12.47,-11.13 12.47,-6.99 12.47,-6.99z">
                        </path>
                        <g opacity="1" transform="matrix(0.39465567469596863,0,0,0.39465567469596863,0,0)"></g>
                    </g>
                </g>
            </g>
            <g stroke-linecap="butt" stroke-linejoin="round" stroke-miterlimit="4"
                transform="matrix(1,0,0,1,18.390954971313477,0)" opacity="1" style="display: inherit;">
                <g>
                    <g transform="matrix(1,0,0,1,0,0)" opacity="1" style="display: block;">
                        <path
                            d=" M12.23,-13.58 C12.23,-13.58 12.23,-17.37 12.23,-17.37 C12.23,-17.58 12.04,-17.75 11.64,-17.88 C11.25,-18.01 10.71,-18.08 10.02,-18.08 C9.05,-18.08 8.05,-17.68 7.02,-16.89 C7.02,-16.89 6.79,-16.77 6.79,-16.77 C6.55,-16.8 6.43,-16.93 6.43,-17.17 C6.43,-17.17 6.43,-17.72 6.43,-17.72 C6.43,-17.96 6.3,-18.08 6.04,-18.08 C6.04,-18.08 2.68,-18.08 2.68,-18.08 C2.42,-18.08 2.29,-17.94 2.29,-17.68 C2.29,-17.68 2.29,-0.39 2.29,-0.39 C2.29,-0.13 2.42,0 2.68,0 C2.68,0 6.39,0 6.39,0 C6.66,0 6.79,-0.13 6.79,-0.4 C6.79,-0.4 6.79,-11.16 6.79,-11.16 C6.79,-11.93 7.05,-12.58 7.58,-13.12 C8.1,-13.66 8.75,-13.93 9.51,-13.93 C10.06,-13.93 10.54,-13.8 10.95,-13.54 C11.36,-13.27 11.69,-13.14 11.96,-13.14 C12.14,-13.14 12.23,-13.29 12.23,-13.58z">
                        </path>
                        <g opacity="1" transform="matrix(0.39465567469596863,0,0,0.39465567469596863,0,0)"></g>
                    </g>
                </g>
            </g>
            <g stroke-linecap="butt" stroke-linejoin="round" stroke-miterlimit="4"
                transform="matrix(1,0,0,1,30.704214096069336,0)" opacity="1" style="display: inherit;">
                <g>
                    <g transform="matrix(1,0,0,1,0,0)" opacity="1" style="display: block;">
                        <path
                            d=" M16.42,-0.39 C16.42,-0.39 16.42,-11.52 16.42,-11.52 C16.42,-12.58 16.24,-13.53 15.88,-14.39 C15.53,-15.24 15.03,-15.97 14.39,-16.58 C13.74,-17.18 12.96,-17.65 12.06,-17.98 C11.15,-18.31 10.14,-18.47 9.04,-18.47 C6.85,-18.47 5.18,-17.9 4.03,-16.77 C3.34,-16.11 2.85,-15.51 2.57,-14.96 C2.28,-14.4 2.13,-14.05 2.13,-13.89 C2.13,-13.79 2.21,-13.69 2.37,-13.62 C2.37,-13.62 5.6,-11.92 5.6,-11.92 C5.71,-11.87 5.79,-11.84 5.84,-11.84 C6,-11.84 6.14,-11.96 6.26,-12.21 C6.37,-12.46 6.58,-12.77 6.87,-13.14 C7.16,-13.51 7.5,-13.8 7.89,-14.01 C8.29,-14.22 8.67,-14.33 9.04,-14.33 C9.85,-14.33 10.51,-14.09 11.01,-13.62 C11.51,-13.14 11.8,-12.5 11.88,-11.68 C11.88,-11.68 11.92,-11.21 11.92,-11.21 C11.92,-11.21 11.92,-11.13 11.92,-11.13 C11.92,-10.89 11.79,-10.77 11.52,-10.77 C11.52,-10.77 7.74,-10.77 7.74,-10.77 C6.08,-10.77 4.74,-10.29 3.71,-9.31 C2.68,-8.34 2.17,-7.06 2.17,-5.49 C2.17,-5.49 2.17,-5.29 2.17,-5.29 C2.17,-4.53 2.31,-3.82 2.58,-3.18 C2.86,-2.53 3.24,-1.97 3.73,-1.5 C4.22,-1.03 4.8,-0.66 5.49,-0.39 C6.17,-0.13 6.92,0 7.74,0 C7.74,0 9.23,0 9.23,0 C9.95,0 10.53,-0.12 10.99,-0.37 C11.45,-0.62 11.79,-0.75 12,-0.75 C12.08,-0.75 12.13,-0.71 12.16,-0.63 C12.18,-0.55 12.21,-0.47 12.23,-0.37 C12.26,-0.28 12.3,-0.2 12.35,-0.12 C12.41,-0.04 12.51,0 12.67,0 C12.67,0 16.02,0 16.02,0 C16.29,0 16.42,-0.13 16.42,-0.39z M11.92,-6.99 C11.89,-6.77 11.88,-6.62 11.88,-6.51 C11.88,-6.51 11.88,-6.35 11.88,-6.35 C11.35,-4.88 10.47,-4.14 9.23,-4.14 C9.23,-4.14 7.74,-4.14 7.74,-4.14 C7.42,-4.14 7.16,-4.25 6.97,-4.46 C6.77,-4.67 6.67,-4.95 6.67,-5.29 C6.67,-5.29 6.67,-5.88 6.67,-5.88 C6.67,-6.17 6.77,-6.43 6.99,-6.65 C7.2,-6.87 7.45,-6.99 7.74,-6.99 C7.74,-6.99 11.92,-6.99 11.92,-6.99z">
                        </path>
                        <g opacity="1" transform="matrix(0.39465567469596863,0,0,0.39465567469596863,0,0)"></g>
                    </g>
                </g>
            </g>
            <g stroke-linecap="butt" stroke-linejoin="round" stroke-miterlimit="4"
                transform="matrix(1,0,0,1,48.858375549316406,0)" opacity="1" style="display: inherit;">
                <g>
                    <g transform="matrix(1,0,0,1,0,0)" opacity="1" style="display: block;">
                        <path
                            d=" M16.97,-0.39 C16.97,-0.39 16.97,-11.13 16.97,-11.13 C16.97,-12.16 16.79,-13.1 16.44,-13.95 C16.08,-14.81 15.59,-15.54 14.96,-16.14 C14.33,-16.75 13.58,-17.22 12.73,-17.56 C11.87,-17.9 10.94,-18.08 9.95,-18.08 C9.5,-18.08 9.1,-18.04 8.74,-17.96 C8.39,-17.88 8.08,-17.79 7.81,-17.68 C7.55,-17.58 7.33,-17.48 7.14,-17.4 C6.96,-17.33 6.81,-17.29 6.71,-17.29 C6.63,-17.29 6.58,-17.33 6.55,-17.4 C6.52,-17.48 6.5,-17.58 6.47,-17.68 C6.45,-17.79 6.41,-17.88 6.35,-17.96 C6.3,-18.04 6.2,-18.08 6.04,-18.08 C6.04,-18.08 2.68,-18.08 2.68,-18.08 C2.42,-18.08 2.29,-17.94 2.29,-17.68 C2.29,-17.68 2.29,-0.39 2.29,-0.39 C2.29,-0.13 2.42,0 2.68,0 C2.68,0 6.39,0 6.39,0 C6.66,0 6.79,-0.13 6.79,-0.39 C6.79,-0.39 6.79,-11.13 6.79,-11.13 C6.79,-11.92 7.05,-12.58 7.58,-13.12 C8.11,-13.66 8.8,-13.93 9.65,-13.93 C10.47,-13.93 11.15,-13.66 11.68,-13.12 C12.21,-12.58 12.47,-11.92 12.47,-11.13 C12.47,-11.13 12.47,-0.39 12.47,-0.39 C12.47,-0.13 12.6,0 12.86,0 C12.86,0 16.58,0 16.58,0 C16.84,0 16.97,-0.13 16.97,-0.39z">
                        </path>
                        <g opacity="1" transform="matrix(0.39465567469596863,0,0,0.39465567469596863,0,0)"></g>
                    </g>
                </g>
            </g>
            <g stroke-linecap="butt" stroke-linejoin="round" stroke-miterlimit="4"
                transform="matrix(1,0,0,1,68.1175765991211,0)" opacity="1" style="display: inherit;">
                <g>
                    <g transform="matrix(1,0,0,1,0,0)" opacity="1" style="display: block;">
                        <path
                            d=" M16.42,-0.39 C16.42,-0.39 16.42,-24.47 16.42,-24.47 C16.42,-24.73 16.29,-24.86 16.03,-24.86 C16.03,-24.86 12.31,-24.86 12.31,-24.86 C12.05,-24.86 11.92,-24.73 11.92,-24.47 C11.92,-24.47 11.92,-17.72 11.92,-17.72 C11.92,-17.43 11.83,-17.29 11.64,-17.29 C11.43,-17.29 11.06,-17.42 10.53,-17.68 C10,-17.94 9.32,-18.08 8.47,-18.08 C7.52,-18.08 6.64,-17.9 5.82,-17.54 C5,-17.19 4.28,-16.7 3.66,-16.08 C3.04,-15.46 2.56,-14.73 2.21,-13.89 C1.87,-13.05 1.7,-12.13 1.7,-11.13 C1.7,-11.13 1.7,-6.99 1.7,-6.99 C1.7,-5.96 1.88,-5.01 2.23,-4.14 C2.59,-3.28 3.08,-2.54 3.72,-1.93 C4.35,-1.33 5.1,-0.85 5.98,-0.51 C6.85,-0.17 7.8,0 8.83,0 C9.73,0 10.43,-0.13 10.93,-0.39 C11.43,-0.66 11.8,-0.79 12.04,-0.79 C12.14,-0.79 12.21,-0.75 12.23,-0.67 C12.26,-0.59 12.28,-0.5 12.29,-0.39 C12.3,-0.29 12.34,-0.2 12.39,-0.12 C12.44,-0.04 12.54,0 12.7,0 C12.7,0 16.03,0 16.03,0 C16.29,0 16.42,-0.13 16.42,-0.39z M11.92,-6.99 C11.92,-6.17 11.65,-5.49 11.12,-4.95 C10.58,-4.41 9.9,-4.14 9.08,-4.14 C8.22,-4.14 7.53,-4.41 7,-4.95 C6.46,-5.49 6.2,-6.17 6.2,-6.99 C6.2,-6.99 6.2,-11.13 6.2,-11.13 C6.2,-11.92 6.46,-12.58 7,-13.12 C7.53,-13.66 8.22,-13.93 9.08,-13.93 C9.9,-13.93 10.58,-13.66 11.12,-13.12 C11.65,-12.58 11.92,-11.92 11.92,-11.13 C11.92,-11.13 11.92,-6.99 11.92,-6.99z">
                        </path>
                        <g opacity="1" transform="matrix(0.39465567469596863,0,0,0.39465567469596863,0,0)"></g>
                    </g>
                </g>
            </g>
            <g stroke-linecap="butt" stroke-linejoin="round" stroke-miterlimit="4"
                transform="matrix(1,0,0,1,86.7847900390625,0)" opacity="1" style="display: inherit;">
                <g>
                    <g transform="matrix(1,0,0,1,0,0)" opacity="1" style="display: block;">
                        <path
                            d=" M6.39,-24.47 C5.87,-24.99 5.25,-25.26 4.54,-25.26 C3.8,-25.26 3.18,-25 2.66,-24.49 C2.15,-23.98 1.89,-23.35 1.89,-22.61 C1.89,-21.88 2.15,-21.25 2.66,-20.74 C3.18,-20.23 3.8,-19.97 4.54,-19.97 C5.25,-19.97 5.87,-20.23 6.39,-20.76 C6.92,-21.28 7.18,-21.9 7.18,-22.61 C7.18,-23.32 6.92,-23.94 6.39,-24.47z M6.79,-0.39 C6.79,-0.39 6.79,-17.68 6.79,-17.68 C6.79,-17.94 6.66,-18.08 6.39,-18.08 C6.39,-18.08 2.68,-18.08 2.68,-18.08 C2.42,-18.08 2.29,-17.94 2.29,-17.68 C2.29,-17.68 2.29,-0.39 2.29,-0.39 C2.29,-0.13 2.42,0 2.68,0 C2.68,0 6.39,0 6.39,0 C6.66,0 6.79,-0.13 6.79,-0.39z">
                        </path>
                        <g opacity="1" transform="matrix(0.39465567469596863,0,0,0.39465567469596863,0,0)"></g>
                    </g>
                </g>
            </g>
            <g stroke-linecap="butt" stroke-linejoin="round" stroke-miterlimit="4"
                transform="matrix(1,0,0,1,95.86186981201172,0)" opacity="1" style="display: inherit;">
                <g>
                    <g transform="matrix(1,0,0,1,0,0)" opacity="1" style="display: block;">
                        <path
                            d=" M16.97,-0.39 C16.97,-0.39 16.97,-11.13 16.97,-11.13 C16.97,-12.16 16.79,-13.1 16.44,-13.95 C16.08,-14.81 15.59,-15.54 14.96,-16.14 C14.33,-16.75 13.58,-17.22 12.73,-17.56 C11.87,-17.9 10.94,-18.08 9.95,-18.08 C9.5,-18.08 9.1,-18.04 8.74,-17.96 C8.39,-17.88 8.08,-17.79 7.81,-17.68 C7.55,-17.58 7.33,-17.48 7.14,-17.4 C6.96,-17.33 6.81,-17.29 6.71,-17.29 C6.63,-17.29 6.58,-17.33 6.55,-17.4 C6.52,-17.48 6.5,-17.58 6.47,-17.68 C6.45,-17.79 6.41,-17.88 6.35,-17.96 C6.3,-18.04 6.2,-18.08 6.04,-18.08 C6.04,-18.08 2.68,-18.08 2.68,-18.08 C2.42,-18.08 2.29,-17.94 2.29,-17.68 C2.29,-17.68 2.29,-0.39 2.29,-0.39 C2.29,-0.13 2.42,0 2.68,0 C2.68,0 6.39,0 6.39,0 C6.66,0 6.79,-0.13 6.79,-0.39 C6.79,-0.39 6.79,-11.13 6.79,-11.13 C6.79,-11.92 7.05,-12.58 7.58,-13.12 C8.11,-13.66 8.8,-13.93 9.65,-13.93 C10.47,-13.93 11.15,-13.66 11.68,-13.12 C12.21,-12.58 12.47,-11.92 12.47,-11.13 C12.47,-11.13 12.47,-0.39 12.47,-0.39 C12.47,-0.13 12.6,0 12.86,0 C12.86,0 16.58,0 16.58,0 C16.84,0 16.97,-0.13 16.97,-0.39z">
                        </path>
                        <g opacity="1" transform="matrix(0.39465567469596863,0,0,0.39465567469596863,0,0)"></g>
                    </g>
                </g>
            </g>
            <g stroke-linecap="butt" stroke-linejoin="round" stroke-miterlimit="4"
                transform="matrix(1,0,0,1,115.12106323242188,0)" opacity="1" style="display: inherit;">
                <g>
                    <g transform="matrix(1,0,0,1,0,0)" opacity="1" style="display: block;">
                        <path
                            d=" M18.08,3.59 C18.08,3.59 18.08,2.84 18.08,2.84 C18.08,2.08 17.94,1.37 17.66,0.73 C17.39,0.09 17,-0.47 16.5,-0.95 C16,-1.42 15.41,-1.79 14.71,-2.05 C14.02,-2.32 13.25,-2.45 12.41,-2.45 C12.41,-2.45 8.01,-2.45 8.01,-2.45 C7.8,-2.71 7.7,-2.95 7.7,-3.16 C7.7,-3.39 7.79,-3.6 7.97,-3.79 C7.97,-3.79 8.56,-3.79 8.56,-3.79 C9.76,-3.79 10.85,-3.96 11.82,-4.3 C12.79,-4.64 13.61,-5.12 14.28,-5.72 C14.94,-6.33 15.46,-7.06 15.83,-7.93 C16.19,-8.8 16.38,-9.75 16.38,-10.77 C16.38,-10.77 16.38,-17.68 16.38,-17.68 C16.38,-17.94 16.25,-18.08 15.98,-18.08 C15.98,-18.08 12.64,-18.08 12.64,-18.08 C12.48,-18.08 12.38,-18.04 12.32,-17.96 C12.27,-17.88 12.24,-17.79 12.23,-17.68 C12.21,-17.58 12.19,-17.48 12.17,-17.4 C12.14,-17.33 12.09,-17.29 12.01,-17.29 C11.77,-17.29 11.39,-17.42 10.87,-17.68 C10.34,-17.94 9.65,-18.08 8.78,-18.08 C7.78,-18.08 6.85,-17.9 5.99,-17.54 C5.12,-17.19 4.37,-16.7 3.74,-16.08 C3.11,-15.46 2.61,-14.73 2.25,-13.87 C1.88,-13.02 1.7,-12.1 1.7,-11.13 C1.7,-11.13 1.7,-10.77 1.7,-10.77 C1.7,-10.12 1.76,-9.54 1.89,-9.04 C2.03,-8.54 2.2,-8.09 2.43,-7.7 C2.65,-7.3 2.89,-6.94 3.14,-6.61 C3.39,-6.28 3.63,-5.96 3.87,-5.64 C3.95,-5.56 3.99,-5.47 3.99,-5.37 C3.99,-5.21 3.89,-4.95 3.71,-4.58 C3.53,-4.21 3.43,-3.74 3.43,-3.16 C3.43,-2.63 3.5,-2.22 3.63,-1.91 C3.76,-1.61 3.83,-1.39 3.83,-1.26 C3.83,-1.13 3.77,-1.01 3.65,-0.89 C3.53,-0.77 3.37,-0.61 3.16,-0.39 C2.76,0.08 2.42,0.55 2.13,1.01 C1.84,1.47 1.7,2.08 1.7,2.84 C1.7,2.84 1.7,3.59 1.7,3.59 C1.7,4.35 1.83,5.06 2.11,5.7 C2.39,6.35 2.77,6.91 3.27,7.38 C3.77,7.85 4.37,8.22 5.06,8.49 C5.76,8.75 6.53,8.88 7.37,8.88 C7.37,8.88 12.41,8.88 12.41,8.88 C13.25,8.88 14.01,8.75 14.71,8.49 C15.4,8.22 16,7.85 16.5,7.38 C17,6.91 17.39,6.35 17.66,5.7 C17.94,5.06 18.08,4.35 18.08,3.59z M11.88,-10.77 C11.88,-9.98 11.61,-9.31 11.06,-8.76 C10.52,-8.21 9.85,-7.93 9.06,-7.93 C8.21,-7.93 7.52,-8.21 6.99,-8.76 C6.46,-9.31 6.2,-9.98 6.2,-10.77 C6.2,-10.77 6.2,-11.13 6.2,-11.13 C6.2,-11.92 6.46,-12.58 6.99,-13.12 C7.52,-13.66 8.21,-13.93 9.06,-13.93 C9.88,-13.93 10.55,-13.66 11.08,-13.12 C11.61,-12.58 11.88,-11.92 11.88,-11.13 C11.88,-11.13 11.88,-10.77 11.88,-10.77z M13.58,3.59 C13.58,3.91 13.46,4.18 13.24,4.4 C13.01,4.62 12.74,4.74 12.43,4.74 C12.43,4.74 7.35,4.74 7.35,4.74 C7,4.74 6.73,4.63 6.51,4.42 C6.3,4.21 6.2,3.93 6.2,3.59 C6.2,3.59 6.2,2.84 6.2,2.84 C6.2,2.5 6.3,2.22 6.51,2.01 C6.73,1.8 7,1.7 7.35,1.7 C7.35,1.7 12.43,1.7 12.43,1.7 C12.77,1.7 13.05,1.8 13.26,2.01 C13.47,2.22 13.58,2.5 13.58,2.84 C13.58,2.84 13.58,3.59 13.58,3.59z">
                        </path>
                        <g opacity="1" transform="matrix(0.39465567469596863,0,0,0.39465567469596863,0,0)"></g>
                    </g>
                </g>
            </g>
        </g>
        <g transform="matrix(1,0,0,1,120.78500366210938,220.10299682617188)" opacity="1" style="display: block;">
            <g opacity="1" transform="matrix(1,0,0,1,71.3489990234375,27.700000762939453)">
                <path stroke-linecap="round" stroke-linejoin="miter" fill-opacity="0" stroke-miterlimit="10"
                    stroke="rgb(0,0,0)" stroke-opacity="1" stroke-width="4.3"
                    d=" M-60.5989990234375,-16.520999908447266 C-38.886234283447266,-17.0526123046875 -30.268001556396484,-17.046594619750977 0.003998585510998964,-17.046594619750977 C30.27499771118164,-17.046594619750977 41.11607360839844,-17.0526123046875 60.566001892089844,-16.520999908447266 C60.71199035644531,-16.517009735107422 60.5989990234375,-16.80900001525879 60.566001892089844,-16.951000213623047">
                </path>
            </g>
        </g>
        <g transform="matrix(1,0,0,1,120.77799987792969,186.41700744628906)" opacity="1" style="display: block;">
            <g opacity="1" transform="matrix(1,0,0,1,71.3489990234375,27.700000762939453)">
                <path stroke-linecap="round" stroke-linejoin="miter" fill-opacity="0" stroke-miterlimit="10"
                    stroke="rgb(0,0,0)" stroke-opacity="1" stroke-width="4.3"
                    d=" M60.5989990234375,16.520000457763672 C47.123653411865234,16.63064193725586 30.330997467041016,16.546630859375 0.05999688804149628,16.546630859375 C-30.211002349853516,16.546630859375 -48.877525329589844,16.63064193725586 -60.566001892089844,16.520000457763672 C-60.71199035644531,16.519010543823242 -60.5989990234375,16.80900001525879 -60.566001892089844,16.951000213623047">
                </path>
            </g>
        </g>
        <g transform="matrix(1,0,0,1,120.77800750732422,171.78399658203125)" opacity="1" style="display: block;">
            <g opacity="1" transform="matrix(1,0,0,1,71.36499786376953,59.069000244140625)">
                <path stroke-linecap="butt" stroke-linejoin="miter" fill-opacity="0" stroke-miterlimit="10"
                    stroke="rgb(0,0,0)" stroke-opacity="1" stroke-width="4.3"
                    d=" M-60.582000732421875,0.3089999854564667 C-56.31800079345703,27.679000854492188 -30.270999908447266,48.31999969482422 0.0010000000474974513,48.31999969482422 C30.27199935913086,48.31999969482422 56.319000244140625,27.679000854492188 60.58300018310547,0.3089999854564667 C60.6150016784668,0.10499999672174454 60.6150016784668,-0.10400000214576721 60.58300018310547,-0.30799999833106995 C56.319000244140625,-27.67799949645996 30.27199935913086,-48.31999969482422 0.0010000000474974513,-48.31999969482422 C-30.270999908447266,-48.31999969482422 -56.31800079345703,-27.67799949645996 -60.582000732421875,-0.30799999833106995 C-60.6150016784668,-0.10400000214576721 -60.6150016784668,0.10499999672174454 -60.582000732421875,0.3089999854564667z">
                </path>
            </g>
        </g>
        <g transform="matrix(1,0,0,1,137.5970001220703,268.5220031738281)" opacity="1" style="display: block;">
            <g opacity="1" transform="matrix(1,0,0,1,4.197999954223633,4.249000072479248)">
                <path stroke-linecap="round" stroke-linejoin="miter" fill-opacity="0" stroke-miterlimit="10"
                    stroke="rgb(0,0,0)" stroke-opacity="1" stroke-width="4.3"
                    d=" M2.0490000247955322,-2.0999999046325684 C2.0490000247955322,-2.0999999046325684 -1.0130000114440918,1.0379999876022339 -1.843000054359436,1.8890000581741333">
                </path>
            </g>
        </g>
        <g transform="matrix(1,0,0,1,160.66299438476562,281.1540222167969)" opacity="1" style="display: block;">
            <g opacity="1" transform="matrix(1,0,0,1,3.203000068664551,4.175000190734863)">
                <path stroke-linecap="round" stroke-linejoin="miter" fill-opacity="0" stroke-miterlimit="10"
                    stroke="rgb(0,0,0)" stroke-opacity="1" stroke-width="4.3"
                    d=" M1.0529999732971191,-2.0260000228881836 C1.0529999732971191,-2.0260000228881836 -0.5210000276565552,1.0019999742507935 -0.9470000267028809,1.8229999542236328">
                </path>
            </g>
        </g>
        <g transform="matrix(1,0,0,1,238.42599487304688,268.5220031738281)" opacity="1" style="display: block;">
            <g opacity="1" transform="matrix(1,0,0,1,4.197999954223633,4.249000072479248)">
                <path stroke-linecap="round" stroke-linejoin="miter" fill-opacity="0" stroke-miterlimit="10"
                    stroke="rgb(0,0,0)" stroke-opacity="1" stroke-width="4.3"
                    d=" M-2.0490000247955322,-2.0999999046325684 C-2.0490000247955322,-2.0999999046325684 1.0130000114440918,1.0379999876022339 1.843000054359436,1.8890000581741333">
                </path>
            </g>
        </g>
        <g transform="matrix(1,0,0,1,217.34999084472656,281.1540222167969)" opacity="1" style="display: block;">
            <g opacity="1" transform="matrix(1,0,0,1,3.203000068664551,4.175000190734863)">
                <path stroke-linecap="round" stroke-linejoin="miter" fill-opacity="0" stroke-miterlimit="10"
                    stroke="rgb(0,0,0)" stroke-opacity="1" stroke-width="4.3"
                    d=" M-1.0529999732971191,-2.0260000228881836 C-1.0529999732971191,-2.0260000228881836 0.5210000276565552,1.0019999742507935 0.9470000267028809,1.8229999542236328">
                </path>
            </g>
        </g>
        <g transform="matrix(1,0,0,1,137.5970001220703,184.76400756835938)" opacity="1" style="display: block;">
            <g opacity="1" transform="matrix(1,0,0,1,4.197999954223633,4.25)">
                <path stroke-linecap="round" stroke-linejoin="miter" fill-opacity="0" stroke-miterlimit="10"
                    stroke="rgb(0,0,0)" stroke-opacity="1" stroke-width="4.3"
                    d=" M2.0490000247955322,2.0989999771118164 C2.0490000247955322,2.0989999771118164 -1.0130000114440918,-1.0379999876022339 -1.843000054359436,-1.8880000114440918">
                </path>
            </g>
        </g>
        <g transform="matrix(1,0,0,1,160.66299438476562,172.27999877929688)" opacity="1" style="display: block;">
            <g opacity="1" transform="matrix(1,0,0,1,3.203000068664551,4.176000118255615)">
                <path stroke-linecap="round" stroke-linejoin="miter" fill-opacity="0" stroke-miterlimit="10"
                    stroke="rgb(0,0,0)" stroke-opacity="1" stroke-width="4.3"
                    d=" M1.0529999732971191,2.0250000953674316 C1.0529999732971191,2.0250000953674316 -0.5210000276565552,-1.0010000467300415 -0.9470000267028809,-1.8220000267028809">
                </path>
            </g>
        </g>
        <g transform="matrix(1,0,0,1,190.06500244140625,167.64698791503906)" opacity="1" style="display: block;">
            <g opacity="1" transform="matrix(1,0,0,1,2.2109999656677246,4.432000160217285)">
                <path stroke-linecap="round" stroke-linejoin="miter" fill-opacity="0" stroke-miterlimit="10"
                    stroke="rgb(0,0,0)" stroke-opacity="1" stroke-width="4.3"
                    d=" M0.061000000685453415,2.2820000648498535 C0.061000000685453415,2.2820000648498535 -0.029999999329447746,-1.128000020980835 -0.054999999701976776,-2.052999973297119">
                </path>
            </g>
        </g>
        <g transform="matrix(1,0,0,1,217.34999084472656,172.27999877929688)" opacity="1" style="display: block;">
            <g opacity="1" transform="matrix(1,0,0,1,3.203000068664551,4.176000118255615)">
                <path stroke-linecap="round" stroke-linejoin="miter" fill-opacity="0" stroke-miterlimit="10"
                    stroke="rgb(0,0,0)" stroke-opacity="1" stroke-width="4.3"
                    d=" M-1.0529999732971191,2.0250000953674316 C-1.0529999732971191,2.0250000953674316 0.5210000276565552,-1.0010000467300415 0.9470000267028809,-1.8220000267028809">
                </path>
            </g>
        </g>
        <g transform="matrix(1,0,0,1,189.9320068359375,285.2749938964844)" opacity="1" style="display: block;">
            <g opacity="1" transform="matrix(1,0,0,1,2.2109999656677246,4.431000232696533)">
                <path stroke-linecap="round" stroke-linejoin="miter" fill-opacity="0" stroke-miterlimit="10"
                    stroke="rgb(0,0,0)" stroke-opacity="1" stroke-width="4.3"
                    d=" M-0.061000000685453415,-2.2820000648498535 C-0.061000000685453415,-2.2820000648498535 0.029999999329447746,1.128000020980835 0.054999999701976776,2.052999973297119">
                </path>
            </g>
        </g>
        <g transform="matrix(1,0,0,1,238.42599487304688,184.76400756835938)" opacity="1" style="display: block;">
            <g opacity="1" transform="matrix(1,0,0,1,4.197999954223633,4.25)">
                <path stroke-linecap="round" stroke-linejoin="miter" fill-opacity="0" stroke-miterlimit="10"
                    stroke="rgb(0,0,0)" stroke-opacity="1" stroke-width="4.3"
                    d=" M-2.0490000247955322,2.0989999771118164 C-2.0490000247955322,2.0989999771118164 1.0130000114440918,-1.0379999876022339 1.843000054359436,-1.8880000114440918">
                </path>
            </g>
        </g>
    </g>
</svg>