<svg xmlns="http://www.w3.org/2000/svg" viewBox="0 0 500 500" width="500" height="500"
    preserveAspectRatio="xMidYMid meet"
    style="width: 100%; height: 100%; transform: translate3d(0px, 0px, 0px); content-visibility: visible;">
    <defs>
        <clipPath id="__lottie_element_13">
            <rect width="500" height="500" x="0" y="0"></rect>
        </clipPath>
    </defs>
    <g clip-path="url(#__lottie_element_13)">
        <g transform="matrix(5,0,0,5,-63.99800109863281,0.0000152587890625)" opacity="1" style="display: block;">
            <g opacity="1" transform="matrix(1,0,0,1,50,50.17399978637695)">
                <path fill="rgb(233,235,235)" fill-opacity="1"
                    d=" M32.527000427246094,22.048999786376953 C32.527000427246094,22.048999786376953 -0.5270000100135803,22.048999786376953 -0.5270000100135803,22.048999786376953 C-12.36400032043457,22.048999786376953 -22.048999786376953,12.36400032043457 -22.048999786376953,0.5270000100135803 C-22.048999786376953,0.5270000100135803 -22.048999786376953,-0.5270000100135803 -22.048999786376953,-0.5270000100135803 C-22.048999786376953,-12.36400032043457 -12.36400032043457,-22.048999786376953 -0.5270000100135803,-22.048999786376953 C-0.5270000100135803,-22.048999786376953 32.527000427246094,-22.048999786376953 32.527000427246094,-22.048999786376953 C44.36399841308594,-22.048999786376953 54.04899978637695,-12.36400032043457 54.04899978637695,-0.5270000100135803 C54.04899978637695,-0.5270000100135803 54.04899978637695,0.5270000100135803 54.04899978637695,0.5270000100135803 C54.04899978637695,12.36400032043457 44.36399841308594,22.048999786376953 32.527000427246094,22.048999786376953z">
                </path>
            </g>
        </g>
        <g transform="matrix(5,0,0,5,-63.99800109863281,0.0000152587890625)" opacity="1" style="display: block;">
            <g opacity="1" transform="matrix(1,0,0,1,50,49.683998107910156)">
                <path fill="rgb(255,255,255)" fill-opacity="1"
                    d=" M32.527000427246094,22.048999786376953 C32.527000427246094,22.048999786376953 -0.5270000100135803,22.048999786376953 -0.5270000100135803,22.048999786376953 C-12.36400032043457,22.048999786376953 -22.048999786376953,12.36400032043457 -22.048999786376953,0.5270000100135803 C-22.048999786376953,0.5270000100135803 -22.048999786376953,-0.5270000100135803 -22.048999786376953,-0.5270000100135803 C-22.048999786376953,-12.364999771118164 -12.36400032043457,-22.048999786376953 -0.5270000100135803,-22.048999786376953 C-0.5270000100135803,-22.048999786376953 32.527000427246094,-22.048999786376953 32.527000427246094,-22.048999786376953 C44.36399841308594,-22.048999786376953 54.04899978637695,-12.364999771118164 54.04899978637695,-0.5270000100135803 C54.04899978637695,-0.5270000100135803 54.04899978637695,0.5270000100135803 54.04899978637695,0.5270000100135803 C54.04899978637695,12.36400032043457 44.36399841308594,22.048999786376953 32.527000427246094,22.048999786376953z">
                </path>
            </g>
        </g>
        <g transform="matrix(1,0,0,1,-64,0)" opacity="1" style="display: block;">
            <g opacity="1" transform="matrix(5,0,0,5,-0.0009765625,0.000030517578125)">
                <g opacity="1" transform="matrix(1,0,0,1,57.347999572753906,53.93299865722656)">
                    <path fill="rgb(66,133,244)" fill-opacity="1"
                        d=" M7.058000087738037,-3.9110000133514404 C7.058000087738037,-4.909999847412109 6.97599983215332,-5.914000034332275 6.802999973297119,-6.896999835968018 C6.802999973297119,-6.896999835968018 -7.057000160217285,-6.896999835968018 -7.057000160217285,-6.896999835968018 C-7.057000160217285,-6.896999835968018 -7.057000160217285,-1.2389999628067017 -7.057000160217285,-1.2389999628067017 C-7.057000160217285,-1.2389999628067017 0.8799999952316284,-1.2389999628067017 0.8799999952316284,-1.2389999628067017 C0.5509999990463257,0.5870000123977661 -0.5070000290870667,2.2019999027252197 -2.056999921798706,3.2269999980926514 C-2.056999921798706,3.2269999980926514 -2.056999921798706,3.2309999465942383 -2.056999921798706,3.2309999465942383 C-2.055000066757202,3.2300000190734863 -2.052999973297119,3.2279999256134033 -2.0510001182556152,3.2269999980926514 C-2.0510001182556152,3.2269999980926514 2.680000066757202,6.896999835968018 2.680000066757202,6.896999835968018 C5.459000110626221,4.3379998207092285 7.058000087738037,0.5580000281333923 7.058000087738037,-3.9110000133514404z">
                    </path>
                </g>
            </g>
            <g opacity="1" transform="matrix(5,0,0,5,0.0030059814453125,0.001007080078125)">
                <g opacity="1" transform="matrix(1,0,0,1,48.59400177001953,58.439998626708984)">
                    <path fill="rgb(52,168,82)" fill-opacity="1"
                        d=" M6.696000099182129,-1.2760000228881836 C5.380000114440918,-0.38199999928474426 3.680000066757202,0.12399999797344208 1.7009999752044678,0.12399999797344208 C-2.131999969482422,0.12399999797344208 -5.382999897003174,-2.4630000591278076 -6.548999786376953,-5.940000057220459 C-6.548999786376953,-5.940000057220459 -6.554999828338623,-5.940000057220459 -6.554999828338623,-5.940000057220459 C-6.554999828338623,-5.940000057220459 -11.435999870300293,-2.1549999713897705 -11.435999870300293,-2.1549999713897705 C-8.940999984741211,2.808000087738037 -3.859999895095825,5.940000057220459 1.6959999799728394,5.940000057220459 C5.659999847412109,5.940000057220459 9.001999855041504,4.638000011444092 11.437000274658203,2.3919999599456787 C11.437000274658203,2.3919999599456787 11.434000015258789,2.390000104904175 11.434000015258789,2.390000104904175 C11.434000015258789,2.390000104904175 6.702000141143799,-1.2799999713897705 6.702000141143799,-1.2799999713897705 C6.699999809265137,-1.2790000438690186 6.697999954223633,-1.2769999504089355 6.696000099182129,-1.2760000228881836z">
                    </path>
                </g>
            </g>
            <g opacity="1" transform="matrix(5,0,0,5,0.0009918212890625,-0.0019989013671875)">
                <g opacity="1" transform="matrix(1,0,0,1,38.55699920654297,49.6870002746582)">
                    <path fill="rgb(250,187,4)" fill-opacity="1"
                        d=" M3.4830000400543213,-2.812999963760376 C3.4830000400543213,-2.812999963760376 -1.3980000019073486,-6.5980000495910645 -1.3980000019073486,-6.5980000495910645 C-3.4830000400543213,-2.444999933242798 -3.4830000400543213,2.447000026702881 -1.3980000019073486,6.598999977111816 C-1.3980000019073486,6.598999977111816 3.4830000400543213,2.813999891281128 3.4830000400543213,2.813999891281128 C2.867000102996826,0.9890000224113464 2.867000102996826,-0.9879999756813049 3.4830000400543213,-2.812999963760376z">
                    </path>
                </g>
            </g>
            <g opacity="1" transform="matrix(5,0,0,5,-0.00299072265625,0.001007080078125)">
                <g opacity="1" transform="matrix(1,0,0,1,48.64099884033203,40.90999984741211)">
                    <path fill="rgb(234,67,53)" fill-opacity="1"
                        d=" M1.649999976158142,-0.10599999874830246 C3.746000051498413,-0.1379999965429306 5.769000053405762,0.6499999761581421 7.2870001792907715,2.0969998836517334 C7.2870001792907715,2.0969998836517334 11.482000350952148,-2.0980000495910645 11.482000350952148,-2.0980000495910645 C8.826000213623047,-4.5929999351501465 5.300000190734863,-5.964000225067139 1.649999976158142,-5.921000003814697 C-3.9059998989105225,-5.921000003814697 -8.987000465393066,-2.7899999618530273 -11.482000350952148,2.177999973297119 C-11.482000350952148,2.177999973297119 -6.60099983215332,5.964000225067139 -6.60099983215332,5.964000225067139 C-5.440999984741211,2.4809999465942383 -2.183000087738037,-0.10599999874830246 1.649999976158142,-0.10599999874830246z">
                    </path>
                </g>
            </g>
        </g>
        <g style="display: none;" transform="matrix(5,0,0,5,-90.99801635742188,-0.0009918212890625)" opacity="1">
            <g opacity="1" transform="matrix(1,0,0,1,0,0)">
                <path stroke-linecap="butt" stroke-linejoin="miter" fill-opacity="0" stroke-miterlimit="10"
                    stroke="rgb(255,183,0)" stroke-opacity="1" stroke-width="1"
                    d=" M80.10800170898438,38.23899841308594 C80.10800170898438,38.23899841308594 80.10800170898438,62.108001708984375 80.10800170898438,62.108001708984375">
                </path>
            </g>
        </g>
        <g style="display: none;" transform="matrix(5,0,0,5,-90.99801635742188,-0.0009918212890625)" opacity="1">
            <g opacity="1" transform="matrix(1,0,0,1,0,0)">
                <path stroke-linecap="butt" stroke-linejoin="miter" fill-opacity="0" stroke-miterlimit="10"
                    stroke="rgb(255,183,0)" stroke-opacity="1" stroke-width="1"
                    d=" M80.10800170898438,38.23899841308594 C80.10800170898438,38.23899841308594 80.10800170898438,62.108001708984375 80.10800170898438,62.108001708984375">
                </path>
            </g>
        </g>
        <g style="display: none;" transform="matrix(5,0,0,5,-90.99801635742188,-0.0009918212890625)" opacity="1">
            <g opacity="1" transform="matrix(1,0,0,1,0,0)">
                <path stroke-linecap="butt" stroke-linejoin="miter" fill-opacity="0" stroke-miterlimit="10"
                    stroke="rgb(255,183,0)" stroke-opacity="1" stroke-width="1"
                    d=" M80.10800170898438,38.23899841308594 C80.10800170898438,38.23899841308594 80.10800170898438,62.108001708984375 80.10800170898438,62.108001708984375">
                </path>
            </g>
        </g>
        <g style="display: none;" transform="matrix(5,0,0,5,-90.99801635742188,-0.0009918212890625)" opacity="1">
            <g opacity="1" transform="matrix(1,0,0,1,0,0)">
                <path stroke-linecap="butt" stroke-linejoin="miter" fill-opacity="0" stroke-miterlimit="10"
                    stroke="rgb(255,183,0)" stroke-opacity="1" stroke-width="1"
                    d=" M80.10800170898438,38.23899841308594 C80.10800170898438,38.23899841308594 80.10800170898438,62.108001708984375 80.10800170898438,62.108001708984375">
                </path>
            </g>
        </g>
        <g style="display: none;" transform="matrix(5,0,0,5,-90.99801635742188,-0.0009918212890625)" opacity="1">
            <g opacity="1" transform="matrix(1,0,0,1,0,0)">
                <path stroke-linecap="butt" stroke-linejoin="miter" fill-opacity="0" stroke-miterlimit="10"
                    stroke="rgb(255,183,0)" stroke-opacity="1" stroke-width="1"
                    d=" M80.10800170898438,38.23899841308594 C80.10800170898438,38.23899841308594 80.10800170898438,62.108001708984375 80.10800170898438,62.108001708984375">
                </path>
            </g>
        </g>
        <g style="display: none;" transform="matrix(5,0,0,5,-90.99801635742188,-0.0009918212890625)" opacity="1">
            <g opacity="1" transform="matrix(1,0,0,1,0,0)">
                <path stroke-linecap="butt" stroke-linejoin="miter" fill-opacity="0" stroke-miterlimit="10"
                    stroke="rgb(255,183,0)" stroke-opacity="1" stroke-width="1"
                    d=" M80.10800170898438,38.23899841308594 C80.10800170898438,38.23899841308594 80.10800170898438,62.108001708984375 80.10800170898438,62.108001708984375">
                </path>
            </g>
        </g>
    </g>
</svg>